<svg width="140.000000" height="124.000000" viewBox="0 0 140 124" fill="none" xmlns="http://www.w3.org/2000/svg" xmlns:xlink="http://www.w3.org/1999/xlink">
	<desc>
			Created with Pixso.
	</desc>
	<defs/>
	<path id="Fill 130" d="M7 118.1L7 94.51C7 90.36 15.4 87 25.77 87L68.22 87C78.59 87 87 90.36 87 94.51L87 119L7 118.1Z" fill="#B0D4FF" fill-opacity="1.000000" fill-rule="evenodd"/>
	<path id="Fill 140" d="M66.4 3.3C61.38 0.65 53.74 0.29 52.5 0.12C37.66 -1.88 28.72 19.78 28.2 26.34C27.23 38.44 20.85 40.28 11.89 47.85C-6.1 63.04 -0.83 80.69 9.01 87.25C14.91 91.18 25.31 87.25 25.31 87.25C25.46 87.35 53.75 71.36 67.7 63.65C88.62 60.67 79.18 10.04 66.4 3.3Z" fill="#233862" fill-opacity="1.000000" fill-rule="evenodd"/>
	<path id="Fill 141" d="M44.64 57.17C40.25 55.26 36.93 48.15 37 48.15C38.99 48.06 41.93 45.27 43.61 34L44 34.26L58 40.43C58 40.43 56.96 44.94 56.29 49.24C55.73 52.85 55.42 56.31 56.21 56.82C56.27 56.86 49.3 59.2 44.64 57.17Z" fill="#FFB27D" fill-opacity="1.000000" fill-rule="evenodd"/>
	<path id="Fill 142" d="M58 40.1C58 40.1 56.98 44.66 56.32 49C48.28 47.53 45.12 39.4 44 35L58 40.1Z" fill="#ED975D" fill-opacity="1.000000" fill-rule="evenodd"/>
	<path id="Fill 143" d="M60.92 43.99C60.92 43.99 41.29 41.39 43.12 29.38C44.94 17.38 43.64 8.95 56.25 10.1C68.86 11.25 70.6 16.19 70.98 20.34C71.36 24.5 66.07 44.35 60.92 43.99Z" fill="#FFB27D" fill-opacity="1.000000" fill-rule="evenodd"/>
	<path id="Fill 144" d="M70 14.97C70 14.97 57.77 25.94 49.46 26.82C41.14 27.71 38 24.92 38 24.92C38 24.92 42.9 20.69 45.85 13.85C46.71 11.83 48.55 10.45 50.67 10.26C56.6 9.72 67.85 9.48 70 14.97Z" fill="#233862" fill-opacity="1.000000" fill-rule="evenodd"/>
	<path id="Fill 145" d="M62 13.34C62 13.34 66.13 17.39 67.44 20.4C68.7 23.3 69.08 30.24 68.07 33C68.07 33 74.53 20.29 70.87 14.12C67 7.58 62 13.34 62 13.34Z" fill="#233862" fill-opacity="1.000000" fill-rule="evenodd"/>
	<path id="Fill 146" d="M68.54 120.15C67.51 121.04 64.6 121.57 60.78 121.82C48.75 122.61 27.61 120.65 26.8 118.45C24.03 110.83 25.99 108.47 23.67 96.81C23.43 95.57 23.13 94.23 22.78 92.77C20.85 84.76 18.97 82.04 25.82 69.18C32.03 57.53 38.01 47.66 38.59 48C54.97 57.63 56.17 50.6 56.17 50.6C56.17 50.6 73.28 66.82 72.99 85.75C72.41 124.58 72.83 116.47 68.54 120.15Z" fill="#FFFFFF" fill-opacity="1.000000" fill-rule="evenodd"/>
	<path id="Fill 149" d="M27.98 118.46C25.18 110.73 26.33 107.31 24 95.47L30.39 80C30.39 80 29.43 98.28 34.84 103.09C40.25 107.9 57.01 112.37 59.64 116.39C60.92 118.32 61.75 120.25 62 121.81C49.85 122.61 28.79 120.69 27.98 118.46Z" fill="#EBF3FF" fill-opacity="1.000000" fill-rule="evenodd"/>
	<path id="Fill 150" d="M47 114.01C47 114.01 58.86 111.11 60.77 112.27C62.68 113.42 67.36 117.63 67.95 119.09C68.53 120.56 63.68 117.98 62.11 117.52C61.09 117.22 58.4 118.24 57.07 118.73C51.47 120.78 48.04 119.72 48.04 119.72L47 114.01Z" fill="#FFB27D" fill-opacity="1.000000" fill-rule="evenodd"/>
	<path id="Fill 151" d="M17.88 55.98C10.16 66.69 -5.14 112.32 3.63 118.4C13.51 125.26 48.59 120.2 48.59 120.2C48.59 120.2 49.76 114.77 48.13 112.14C46.51 109.52 20.11 105.27 18.9 104.06C17.68 102.85 34.12 80.43 34.12 76.79C34.12 73.15 38.59 48 38.59 48C38.59 48 23.36 48.38 17.88 55.98Z" fill="#FFFFFF" fill-opacity="1.000000" fill-rule="evenodd"/>
	<path id="Fill 152" d="M61 116C61 116 63.67 119.3 64.55 119.69C65.43 120.08 66 119.98 66 119.98L64.19 116.88L61 116Z" fill="#FFB27D" fill-opacity="1.000000" fill-rule="evenodd"/>
	<path id="Fill 153" d="M60 113L68 116.53C68 116.53 67.65 117.03 66.67 116.99C65.68 116.95 63.2 116.13 63.2 116.13L60 113Z" fill="#FFB27D" fill-opacity="1.000000" fill-rule="evenodd"/>
	<path id="Fill 154" d="M65 124L121.88 124L139 81L82.2 81L65 124Z" fill="#FDC748" fill-opacity="1.000000" fill-rule="evenodd"/>
	<path id="Fill 155" d="M122 122L47 122L47 124L121.33 124L122 122Z" fill="#E6B137" fill-opacity="1.000000" fill-rule="evenodd"/>
	<path id="Fill 156" d="M106.88 102.49C107.34 101.11 106.42 100 104.82 100C103.23 100 101.57 101.11 101.11 102.49C100.66 103.87 101.58 105 103.17 105C104.76 105 106.42 103.87 106.88 102.49Z" fill="#FFFFFF" fill-opacity="1.000000" fill-rule="evenodd"/>
</svg>
